# xmcd
#
# Track frame offsets:
#	150
#	12288
#	24072
#	37122
#	54081
#	66192
#	84749
#	97266
#	112651
#	127616
#	142293
#	156930
#	170981
#
# Disc length: 2535 seconds
# Revision: 2
# Processed by: cddbd v1.5.2PL0 Copyright (c) Steve Scherf et al.
# Submitted via: dBpowerAMP V12.0
#
DISCID=a809e50d
DTITLE=Amos Morris - Memories Live On
DYEAR=1900
DGENRE=Country
TTITLE0=Back to Those Rolling Plains
TTITLE1=Book of Ages
TTITLE2=Bombers of The Bush
TTITLE3=Grandfather Johnson
TTITLE4=Home is Waiting For You
TTITLE5=Peace
TTITLE6=A Pair of Golden Wings
TTITLE7=The Bushmans Prayer
TTITLE8=The Last Goodbye
TTITLE9=The Rain Don't Tumble Down Here
TTITLE10=True Country
TTITLE11=Things Are Not The Same On The Land
TTITLE12=We've Done us Proud
EXTD=
EXTT0=
EXTT1=
EXTT2=
EXTT3=
EXTT4=
EXTT5=
EXTT6=
EXTT7=
EXTT8=
EXTT9=
EXTT10=
EXTT11=
EXTT12=
PLAYORDER=
